<?xml version="1.0" encoding="UTF-8"?>
<svg width="24px" height="24px" viewBox="0 0 24 24" version="1.1" xmlns="http://www.w3.org/2000/svg">
    <g stroke="none" stroke-width="1" fill="none" fill-rule="evenodd">
        <path d="M18,8 C19.6568542,8 21,9.34314575 21,11 C21,12.6568542 19.6568542,14 18,14 C16.3431458,14 15,12.6568542 15,11 C15,9.34314575 16.3431458,8 18,8 Z M6,15 C7.65685425,15 9,16.3431458 9,18 C9,19.6568542 7.65685425,21 6,21 C4.34314575,21 3,19.6568542 3,18 C3,16.3431458 4.34314575,15 6,15 Z M18,4 C19.6568542,4 21,5.34314575 21,7 C21,8.65685425 19.6568542,10 18,10 C16.3431458,10 15,8.65685425 15,7 C15,5.34314575 16.3431458,4 18,4 Z M6,4 C7.65685425,4 9,5.34314575 9,7 C9,8.65685425 7.65685425,10 6,10 C4.34314575,10 3,8.65685425 3,7 C3,5.34314575 4.34314575,4 6,4 Z" fill="currentColor" fill-rule="nonzero"></path>
        <path d="M8.59,13.51 L15.42,17.49 M15.41,6.51 L8.59,10.49" stroke="currentColor" stroke-width="2" stroke-linecap="round" stroke-linejoin="round"></path>
    </g>
</svg> 